<svg xmlns="http://www.w3.org/2000/svg" width="19" height="19" viewBox="0 0 19 19" fill="none">
  <g clip-path="url(#clip0_3283_18614)">
    <path d="M7.5353 14.8675L5.84078 16.5125C5.39644 16.9564 4.79379 17.2057 4.1654 17.2057C3.53701 17.2057 2.93436 16.9564 2.49002 16.5125C2.04569 16.0686 1.79606 15.4665 1.79606 14.8388C1.79606 14.211 2.04569 13.609 2.49002 13.1651L6.83643 8.81344C7.26304 8.38587 7.83785 8.13849 8.44194 8.12246C9.04602 8.10644 9.63316 8.32301 10.0819 8.72736L10.1968 8.823C10.3783 9.00056 10.623 9.0988 10.8771 9.09611C11.1311 9.09342 11.3737 8.99002 11.5514 8.80866C11.7292 8.6273 11.8275 8.38283 11.8248 8.12903C11.8221 7.87524 11.7186 7.63291 11.5371 7.45535C11.4827 7.38579 11.4252 7.31877 11.3647 7.25451C10.5475 6.5442 9.49055 6.17076 8.408 6.20982C7.32545 6.24889 6.29824 6.69755 5.53442 7.46491L1.13057 11.8165C0.382261 12.6302 -0.0224493 13.7013 0.000961894 14.806C0.0243731 15.9107 0.474095 16.9637 1.25621 17.745C2.03833 18.5264 3.09236 18.9757 4.19819 18.999C5.30402 19.0224 6.37614 18.6181 7.19066 17.8706L8.84689 16.2542C9.01042 16.076 9.10032 15.8425 9.09849 15.6008C9.09666 15.359 9.00324 15.1269 8.83704 14.9512C8.67083 14.7754 8.44416 14.6691 8.20265 14.6536C7.96113 14.638 7.72269 14.7145 7.5353 14.8675ZM17.7695 1.24831C16.9641 0.448761 15.8748 0 14.7394 0C13.604 0 12.5147 0.448761 11.7094 1.24831L10.0532 2.86462C9.88963 3.04285 9.79973 3.27634 9.80156 3.5181C9.80338 3.75987 9.8968 3.99197 10.063 4.16771C10.2292 4.34344 10.4559 4.44978 10.6974 4.46531C10.9389 4.48083 11.1774 4.40441 11.3647 4.25141L13.021 2.6064C13.4653 2.1625 14.068 1.91313 14.6963 1.91313C15.3247 1.91313 15.9274 2.1625 16.3717 2.6064C16.8161 3.05029 17.0657 3.65234 17.0657 4.2801C17.0657 4.90786 16.8161 5.50991 16.3717 5.9538L12.0253 10.3054C11.5987 10.733 11.0239 10.9804 10.4198 10.9964C9.81573 11.0124 9.22859 10.7959 8.77987 10.3915L8.66499 10.2959C8.48345 10.1183 8.23873 10.0201 7.98468 10.0228C7.73063 10.0254 7.48806 10.1288 7.31033 10.3102C7.13259 10.4916 7.03425 10.736 7.03695 10.9898C7.03964 11.2436 7.14314 11.486 7.32469 11.6635C7.39455 11.7342 7.46805 11.8013 7.54488 11.8644C8.36311 12.5725 9.4196 12.9446 10.5015 12.9055C11.5834 12.8665 12.6102 12.4193 13.3752 11.654L17.7312 7.30233C18.5366 6.50285 18.9927 5.41748 18.9999 4.2832C19.0071 3.14893 18.5647 2.05789 17.7695 1.24831Z" fill="#555555"/>
  </g>
  <defs>
    <clipPath id="clip0_3283_18614">
      <rect width="19" height="19" fill="white"/>
    </clipPath>
  </defs>
</svg>