<svg xmlns="http://www.w3.org/2000/svg" width="36" height="36" viewBox="0 0 36 36" fill="none">
  <path d="M9.625 27.5C9.625 27.5 8 27.5 8 25.875C8 24.25 9.625 19.375 17.75 19.375C25.875 19.375 27.5 24.25 27.5 25.875C27.5 27.5 25.875 27.5 25.875 27.5H9.625ZM17.75 17.75C19.0429 17.75 20.2829 17.2364 21.1971 16.3221C22.1114 15.4079 22.625 14.1679 22.625 12.875C22.625 11.5821 22.1114 10.3421 21.1971 9.42785C20.2829 8.51361 19.0429 8 17.75 8C16.4571 8 15.2171 8.51361 14.3029 9.42785C13.3886 10.3421 12.875 11.5821 12.875 12.875C12.875 14.1679 13.3886 15.4079 14.3029 16.3221C15.2171 17.2364 16.4571 17.75 17.75 17.75Z" fill="white"/>
</svg>