<svg xmlns="http://www.w3.org/2000/svg" width="24" height="24" viewBox="0 0 24 24" fill="none">
  <path d="M10.3076 3.32227C11.9417 3.35482 13.5147 3.97102 14.7383 5.06543L14.9775 5.29004C16.1421 6.43655 16.8612 7.96491 16.998 9.60059C17.1415 11.3158 16.6326 13.0201 15.5771 14.377L20.6689 19.4678L20.7285 19.5293C20.7848 19.5934 20.8314 19.6659 20.8662 19.7441C20.9126 19.8483 20.9374 19.9612 20.9395 20.0752C20.9414 20.1892 20.9206 20.3025 20.8779 20.4082C20.8352 20.514 20.7711 20.6097 20.6904 20.6904C20.6097 20.7711 20.514 20.8352 20.4082 20.8779C20.3025 20.9206 20.1892 20.9414 20.0752 20.9395C19.9612 20.9374 19.8483 20.9126 19.7441 20.8662C19.641 20.8203 19.548 20.7541 19.4707 20.6719L14.376 15.5781C13.0191 16.6335 11.3148 17.1425 9.59961 16.999C7.96393 16.8621 6.43558 16.1431 5.28906 14.9785L5.06445 14.7393C3.89717 13.4342 3.27359 11.7317 3.32227 9.98145L3.33984 9.6543C3.46328 8.02453 4.16537 6.48795 5.32617 5.32715C6.56436 4.08896 8.23009 3.37194 9.98047 3.32324L10.3076 3.32227ZM10.1689 5.02148C9.27814 5.02212 8.40508 5.25436 7.63379 5.69141L7.30957 5.8916C6.46332 6.45765 5.80346 7.26146 5.41406 8.20215C5.02468 9.14302 4.92329 10.1791 5.12207 11.1777C5.32091 12.1762 5.81139 13.0935 6.53125 13.8135L6.71582 13.9893C7.65972 14.8438 8.88964 15.3205 10.1689 15.3213C11.5337 15.322 12.8434 14.7813 13.8096 13.8174L13.8174 13.8096L13.8223 13.8057C14.5396 13.0852 15.0274 12.1683 15.2246 11.1709C15.3974 10.2967 15.3403 9.39453 15.0615 8.55273L14.9287 8.19629C14.5381 7.25603 13.8773 6.45268 13.0303 5.8877C12.1831 5.32271 11.1872 5.0208 10.1689 5.02148Z" fill="white" stroke="white" stroke-width="0.2"/>
</svg>