<svg xmlns="http://www.w3.org/2000/svg" width="12" height="12" viewBox="0 0 12 12" fill="none">
  <g clip-path="url(#clip0_52_889)">
    <path fill-rule="evenodd" clip-rule="evenodd" d="M3.63235 8.208L3.48685 9.95925C3.48418 9.98979 3.49075 10.0204 3.5057 10.0472C3.52064 10.0739 3.54328 10.0956 3.57068 10.1093C3.59808 10.1231 3.62897 10.1283 3.65936 10.1242C3.68975 10.1202 3.71822 10.1072 3.7411 10.0868L5.3986 8.61375L5.84035 8.6235L6.0001 8.625C7.27135 8.625 8.31535 8.295 9.0151 7.74225C9.6826 7.21575 10.1251 6.42225 10.1251 5.25C10.1251 4.07775 9.6826 3.285 9.0151 2.75775C8.31535 2.205 7.27135 1.875 6.0001 1.875C4.72885 1.875 3.68485 2.205 2.9851 2.75775C2.3176 3.285 1.8751 4.07775 1.8751 5.25C1.8751 6.486 2.3671 7.3065 3.1111 7.836L3.63235 8.208ZM4.4881 10.9268L5.8156 9.74775C5.8761 9.74925 5.9376 9.75 6.0001 9.75C8.8996 9.75 11.2501 8.25 11.2501 5.25C11.2501 2.25 8.8996 0.75 6.0001 0.75C3.1006 0.75 0.750097 2.25 0.750097 5.25C0.750097 6.83775 1.4086 8.0055 2.45785 8.7525L2.3656 9.8655C2.34443 10.12 2.4 10.375 2.52514 10.5976C2.65027 10.8203 2.83924 11.0003 3.06766 11.1145C3.29608 11.2287 3.55348 11.2719 3.80666 11.2384C4.05984 11.2049 4.29719 11.0964 4.4881 10.9268Z" fill="#555555"/>
  </g>
  <defs>
    <clipPath id="clip0_52_889">
      <rect width="12" height="12" fill="white"/>
    </clipPath>
  </defs>
</svg>