<svg xmlns="http://www.w3.org/2000/svg" width="14" height="14" viewBox="0 0 14 14" fill="none">
  <path d="M7 9.81641C7.74696 9.81641 8.46332 9.51968 8.9915 8.9915C9.51968 8.46332 9.81641 7.74696 9.81641 7C9.81641 6.25304 9.51968 5.53668 8.9915 5.0085C8.46332 4.48032 7.74696 4.18359 7 4.18359C6.25304 4.18359 5.53668 4.48032 5.0085 5.0085C4.48032 5.53668 4.18359 6.25304 4.18359 7C4.18359 7.74696 4.48032 8.46332 5.0085 8.9915C5.53668 9.51968 6.25304 9.81641 7 9.81641Z" stroke="#999999" stroke-width="1.09683" stroke-linecap="round" stroke-linejoin="round"/>
  <path d="M0.663086 9.81641V4.18359C0.663086 3.2499 1.034 2.35444 1.69422 1.69422C2.35444 1.034 3.2499 0.663086 4.18359 0.663086H9.81641C10.7501 0.663086 11.6456 1.034 12.3058 1.69422C12.966 2.35444 13.3369 3.2499 13.3369 4.18359V9.81641C13.3369 10.7501 12.966 11.6456 12.3058 12.3058C11.6456 12.966 10.7501 13.3369 9.81641 13.3369H4.18359C3.2499 13.3369 2.35444 12.966 1.69422 12.3058C1.034 11.6456 0.663086 10.7501 0.663086 9.81641Z" stroke="#999999" stroke-width="1.09683"/>
  <path d="M10.8721 3.13468L10.8791 3.12695" stroke="#999999" stroke-width="1.09683" stroke-linecap="round" stroke-linejoin="round"/>
</svg>