<svg xmlns="http://www.w3.org/2000/svg" width="14" height="14" viewBox="0 0 14 14" fill="none">
  <path d="M7.54665 3.21571C7.54665 3.0707 7.48905 2.93163 7.38651 2.82909C7.28397 2.72655 7.1449 2.66895 6.99989 2.66895C6.85488 2.66895 6.71581 2.72655 6.61327 2.82909C6.51073 2.93163 6.45313 3.0707 6.45313 3.21571V6.8608C6.45309 6.9535 6.47662 7.04469 6.52151 7.12579C6.5664 7.2069 6.63117 7.27526 6.70974 7.32445L8.89679 8.69136C9.01976 8.76831 9.16826 8.79327 9.30963 8.76073C9.37963 8.74462 9.44577 8.71487 9.50427 8.6732C9.56277 8.63153 9.61249 8.57874 9.6506 8.51786C9.6887 8.45697 9.71444 8.38917 9.72634 8.31834C9.73824 8.2475 9.73607 8.17502 9.71996 8.10502C9.70385 8.03502 9.67411 7.96888 9.63244 7.91038C9.59077 7.85188 9.53798 7.80215 9.47709 7.76405L7.54665 6.55753V3.21571Z" fill="#999999"/>
  <path fill-rule="evenodd" clip-rule="evenodd" d="M7 0.481445C5.30821 0.481445 3.68571 1.15351 2.48943 2.34978C1.29316 3.54606 0.621094 5.16856 0.621094 6.86035C0.621094 8.55214 1.29316 10.1746 2.48943 11.3709C3.68571 12.5672 5.30821 13.2393 7 13.2393C8.69179 13.2393 10.3143 12.5672 11.5106 11.3709C12.7068 10.1746 13.3789 8.55214 13.3789 6.86035C13.3789 5.16856 12.7068 3.54606 11.5106 2.34978C10.3143 1.15351 8.69179 0.481445 7 0.481445ZM1.71462 6.86035C1.71462 6.16627 1.85133 5.47898 2.11695 4.83772C2.38256 4.19647 2.77188 3.61382 3.26267 3.12302C3.75347 2.63223 4.33612 2.24291 4.97737 1.9773C5.61862 1.71168 6.30591 1.57497 7 1.57497C7.69409 1.57497 8.38138 1.71168 9.02263 1.9773C9.66388 2.24291 10.2465 2.63223 10.7373 3.12302C11.2281 3.61382 11.6174 4.19647 11.8831 4.83772C12.1487 5.47898 12.2854 6.16627 12.2854 6.86035C12.2854 8.26212 11.7285 9.60648 10.7373 10.5977C9.74613 11.5889 8.40177 12.1457 7 12.1457C5.59823 12.1457 4.25387 11.5889 3.26267 10.5977C2.27147 9.60648 1.71462 8.26212 1.71462 6.86035Z" fill="#999999"/>
</svg>