<svg xmlns="http://www.w3.org/2000/svg" width="14" height="14" viewBox="0 0 14 14" fill="none">
  <path d="M7.12512 13.6264L7.11772 13.6278L7.06996 13.6513L7.05651 13.654L7.04709 13.6513L6.99933 13.6278C6.99215 13.6255 6.98677 13.6266 6.98318 13.6311L6.98049 13.6379L6.96906 13.9258L6.97242 13.9392L6.97915 13.948L7.04911 13.9977L7.0592 14.0004L7.06727 13.9977L7.13723 13.948L7.1453 13.9372L7.14799 13.9258L7.13656 13.6385C7.13476 13.6314 7.13095 13.6273 7.12512 13.6264ZM7.30338 13.5504L7.29464 13.5518L7.17019 13.6143L7.16346 13.621L7.16145 13.6284L7.17355 13.9177L7.17692 13.9258L7.1823 13.9305L7.31751 13.993C7.32603 13.9953 7.33253 13.9935 7.33702 13.9877L7.33971 13.9782L7.31684 13.5652C7.31459 13.5571 7.31011 13.5522 7.30338 13.5504ZM6.82241 13.5518C6.81945 13.55 6.81591 13.5494 6.81252 13.5501C6.80914 13.5509 6.80618 13.5529 6.80425 13.5558L6.80021 13.5652L6.77734 13.9782C6.77779 13.9863 6.7816 13.9917 6.78878 13.9944L6.79887 13.993L6.93408 13.9305L6.94081 13.9251L6.9435 13.9177L6.95493 13.6284L6.95291 13.6204L6.94619 13.6136L6.82241 13.5518Z" fill="#6F30BE"/>
  <path d="M11.4356 -0.000976562C11.9708 -0.000976562 12.4841 0.211639 12.8626 0.590097C13.2411 0.968555 13.4537 1.48185 13.4537 2.01707V10.0893C13.4537 10.6245 13.2411 11.1378 12.8626 11.5163C12.4841 11.8947 11.9708 12.1073 11.4356 12.1073H2.01805C1.48283 12.1073 0.969531 11.8947 0.591073 11.5163C0.212615 11.1378 0 10.6245 0 10.0893V2.01707C0 1.48185 0.212615 0.968555 0.591073 0.590097C0.969531 0.211639 1.48283 -0.000976562 2.01805 -0.000976562H11.4356ZM6.72683 2.68976C5.8348 2.68976 4.9793 3.04412 4.34854 3.67488C3.71778 4.30564 3.36342 5.16114 3.36342 6.05317C3.36342 6.94521 3.71778 7.80071 4.34854 8.43147C4.9793 9.06223 5.8348 9.41659 6.72683 9.41659C7.61887 9.41659 8.47437 9.06223 9.10513 8.43147C9.73589 7.80071 10.0903 6.94521 10.0903 6.05317C10.0903 5.16114 9.73589 4.30564 9.10513 3.67488C8.47437 3.04412 7.61887 2.68976 6.72683 2.68976ZM6.72683 4.03512C7.26205 4.03512 7.77535 4.24774 8.15381 4.6262C8.53227 5.00466 8.74488 5.51795 8.74488 6.05317C8.74488 6.5884 8.53227 7.10169 8.15381 7.48015C7.77535 7.85861 7.26205 8.07123 6.72683 8.07123C6.19161 8.07123 5.67831 7.85861 5.29986 7.48015C4.9214 7.10169 4.70878 6.5884 4.70878 6.05317C4.70878 5.51795 4.9214 5.00466 5.29986 4.6262C5.67831 4.24774 6.19161 4.03512 6.72683 4.03512ZM11.4356 2.01707H10.7629C10.5915 2.01726 10.4266 2.08292 10.3019 2.20061C10.1772 2.31831 10.1022 2.47918 10.0922 2.65033C10.0821 2.82149 10.1378 2.99003 10.2478 3.12151C10.3579 3.25299 10.514 3.33748 10.6842 3.35773L10.7629 3.36244H11.4356C11.6071 3.36225 11.772 3.2966 11.8967 3.1789C12.0213 3.0612 12.0964 2.90034 12.1064 2.72918C12.1164 2.55802 12.0608 2.38949 11.9507 2.25801C11.8407 2.12653 11.6846 2.04203 11.5143 2.02178L11.4356 2.01707Z" fill="#6F30BE"/>
</svg>