<svg xmlns="http://www.w3.org/2000/svg" width="12" height="12" viewBox="0 0 12 12" fill="none">
  <path d="M1.496 5.78788C1.496 4.97188 1.7 4.21588 2.104 3.52388C2.508 2.83188 3.056 2.28388 3.748 1.87988C4.44 1.47588 5.192 1.27588 6.004 1.27588C6.612 1.27588 7.196 1.39588 7.752 1.63188C8.308 1.86788 8.784 2.19188 9.188 2.59188C9.592 2.99188 9.912 3.47188 10.148 4.03188C10.384 4.59188 10.504 5.17188 10.504 5.78788C10.504 6.39588 10.384 6.97988 10.148 7.53588C9.912 8.09188 9.588 8.57188 9.188 8.97188C8.788 9.37188 8.308 9.69188 7.752 9.92788C7.196 10.1639 6.616 10.2839 6.004 10.2839C5.392 10.2839 4.804 10.1639 4.248 9.92788C3.692 9.69188 3.212 9.36788 2.808 8.96788C2.404 8.56788 2.088 8.08788 1.848 7.53588C1.608 6.98388 1.496 6.39988 1.496 5.78788ZM2.488 5.78788C2.488 6.73588 2.832 7.55988 3.524 8.25988C4.216 8.95188 5.04 9.29588 6.004 9.29588C6.636 9.29588 7.224 9.13988 7.76 8.82388C8.296 8.50788 8.728 8.08388 9.044 7.54388C9.36 7.00388 9.52 6.41988 9.52 5.78788C9.52 5.15588 9.36 4.56788 9.044 4.02788C8.728 3.48788 8.3 3.05988 7.76 2.74388C7.22 2.42788 6.636 2.27188 6.004 2.27188C5.372 2.27188 4.784 2.42788 4.248 2.74388C3.712 3.05988 3.28 3.48788 2.96 4.02788C2.64 4.56788 2.488 5.15588 2.488 5.78788ZM5.656 5.78788V3.12388C5.656 3.03188 5.688 2.95188 5.752 2.88788C5.816 2.82388 5.896 2.79188 5.988 2.79188C6.08 2.79188 6.16 2.82388 6.224 2.88788C6.288 2.95188 6.32 3.03188 6.32 3.12388V5.58388L7.756 6.41988C7.836 6.46788 7.884 6.53588 7.908 6.62388C7.932 6.71188 7.92 6.79588 7.872 6.87188C7.808 6.98388 7.712 7.03988 7.584 7.03988C7.516 7.03988 7.46 7.02388 7.416 6.99188L5.888 6.09988C5.82 6.07988 5.764 6.03988 5.72 5.98388C5.676 5.92788 5.656 5.86388 5.656 5.78788Z" fill="#555555"/>
</svg>