<svg xmlns="http://www.w3.org/2000/svg" width="19" height="20" viewBox="0 0 19 20" fill="none">
  <path d="M6.89509 6.60338L8.70801 4.78255V12.3746C8.70801 12.5846 8.79142 12.786 8.93988 12.9344C9.08835 13.0829 9.28971 13.1663 9.49967 13.1663C9.70964 13.1663 9.911 13.0829 10.0595 12.9344C10.2079 12.786 10.2913 12.5846 10.2913 12.3746V4.78255L12.1043 6.60338C12.1779 6.67759 12.2654 6.73648 12.3619 6.77667C12.4584 6.81686 12.5618 6.83756 12.6663 6.83756C12.7709 6.83756 12.8743 6.81686 12.9708 6.77667C13.0673 6.73648 13.1548 6.67759 13.2284 6.60338C13.3026 6.52979 13.3615 6.44223 13.4017 6.34576C13.4419 6.24928 13.4626 6.14581 13.4626 6.0413C13.4626 5.93679 13.4419 5.83332 13.4017 5.73684C13.3615 5.64037 13.3026 5.55281 13.2284 5.47922L10.0618 2.31255C9.98647 2.24048 9.89769 2.18398 9.80051 2.1463C9.60777 2.06712 9.39158 2.06712 9.19884 2.1463C9.10166 2.18398 9.01288 2.24048 8.93759 2.31255L5.77092 5.47922C5.69711 5.55303 5.63856 5.64066 5.59861 5.7371C5.55866 5.83355 5.5381 5.93691 5.5381 6.0413C5.5381 6.14569 5.55866 6.24905 5.59861 6.3455C5.63856 6.44194 5.69711 6.52957 5.77092 6.60338C5.84474 6.6772 5.93237 6.73575 6.02881 6.7757C6.12525 6.81564 6.22862 6.83621 6.33301 6.83621C6.4374 6.83621 6.54076 6.81564 6.63721 6.7757C6.73365 6.73575 6.82128 6.6772 6.89509 6.60338ZM16.6247 11.583C16.4147 11.583 16.2133 11.6664 16.0649 11.8148C15.9164 11.9633 15.833 12.1647 15.833 12.3746V15.5413C15.833 15.7513 15.7496 15.9526 15.6011 16.1011C15.4527 16.2496 15.2513 16.333 15.0413 16.333H3.95801C3.74804 16.333 3.54668 16.2496 3.39822 16.1011C3.24975 15.9526 3.16634 15.7513 3.16634 15.5413V12.3746C3.16634 12.1647 3.08293 11.9633 2.93447 11.8148C2.786 11.6664 2.58464 11.583 2.37467 11.583C2.16471 11.583 1.96335 11.6664 1.81488 11.8148C1.66642 11.9633 1.58301 12.1647 1.58301 12.3746V15.5413C1.58301 16.1712 1.83323 16.7753 2.27863 17.2207C2.72403 17.6661 3.32812 17.9163 3.95801 17.9163H15.0413C15.6712 17.9163 16.2753 17.6661 16.7207 17.2207C17.1661 16.7753 17.4163 16.1712 17.4163 15.5413V12.3746C17.4163 12.1647 17.3329 11.9633 17.1845 11.8148C17.036 11.6664 16.8346 11.583 16.6247 11.583Z" fill="black"/>
</svg>