<svg xmlns="http://www.w3.org/2000/svg" width="84" height="84" viewBox="0 0 84 84" fill="none">
  <path d="M42 0C18.816 0 0 18.816 0 42C0 65.184 18.816 84 42 84C65.184 84 84 65.184 84 42C84 18.816 65.184 0 42 0Z" fill="#E8EBEF"/>
  <path d="M55.6808 32.1808C55.6808 24.6368 49.544 18.5 42 18.5C34.456 18.5 28.3192 24.6368 28.3192 32.1808C28.3192 39.7248 34.456 45.8616 42 45.8616C49.544 45.8616 55.6808 39.7248 55.6808 32.1808Z" fill="white"/>
  <path d="M18 59.9658C24.684 68.0179 34.0651 71.2231 42 71.2231C49.9349 71.2231 59.316 68.0179 66 59.9658C59.3941 54.8062 51.0684 51.6791 42 51.6791C32.9316 51.6791 24.6059 54.8062 18 59.9658Z" fill="white"/>
</svg>