<svg
  xmlns="http://www.w3.org/2000/svg"
  width="12"
  height="12"
  viewBox="0 0 12 12"
  fill="none"
>
  <g clip-path="url(#clip0_52_885)">
    <path
      d="M6.05618 9.67339L5.99993 9.72964L5.93806 9.67339C3.26618 7.24901 1.49993 5.64589 1.49993 4.02026C1.49993 2.89526 2.34368 2.05151 3.46868 2.05151C4.33493 2.05151 5.17868 2.61401 5.47681 3.37901H6.52306C6.82118 2.61401 7.66493 2.05151 8.53118 2.05151C9.65618 2.05151 10.4999 2.89526 10.4999 4.02026C10.4999 5.64589 8.73368 7.24901 6.05618 9.67339ZM8.53118 0.926514C7.55243 0.926514 6.61306 1.38214 5.99993 2.09651C5.38681 1.38214 4.44743 0.926514 3.46868 0.926514C1.73618 0.926514 0.374931 2.28214 0.374931 4.02026C0.374931 6.14089 2.28743 7.87901 5.18431 10.5059L5.99993 11.2484L6.81556 10.5059C9.71243 7.87901 11.6249 6.14089 11.6249 4.02026C11.6249 2.28214 10.2637 0.926514 8.53118 0.926514Z"
      fill="#555555"
    />
  </g>
  <defs>
    <clipPath id="clip0_52_885">
      <rect width="12" height="12" fill="white" />
    </clipPath>
  </defs>
</svg>
