<svg xmlns="http://www.w3.org/2000/svg" width="24" height="25" viewBox="0 0 24 25" fill="none">
  <path d="M12.0002 8.28917C11.4797 8.28917 10.9708 8.44353 10.538 8.73273C10.1052 9.02193 9.76782 9.43298 9.56861 9.9139C9.36941 10.3948 9.31729 10.924 9.41884 11.4346C9.5204 11.9451 9.77106 12.4141 10.1391 12.7821C10.5072 13.1502 10.9762 13.4009 11.4867 13.5024C11.9973 13.604 12.5265 13.5519 13.0074 13.3527C13.4883 13.1535 13.8994 12.8161 14.1886 12.3833C14.4778 11.9505 14.6321 11.4416 14.6321 10.9211C14.6321 10.2231 14.3548 9.55362 13.8612 9.06004C13.3677 8.56646 12.6982 8.28917 12.0002 8.28917ZM12.0002 12.5002C11.6879 12.5002 11.3826 12.4076 11.1229 12.2341C10.8632 12.0606 10.6608 11.814 10.5412 11.5254C10.4217 11.2369 10.3905 10.9193 10.4514 10.613C10.5123 10.3067 10.6627 10.0253 10.8836 9.80446C11.1044 9.58361 11.3858 9.43321 11.6921 9.37228C11.9984 9.31135 12.316 9.34262 12.6045 9.46214C12.8931 9.58167 13.1397 9.78407 13.3132 10.0438C13.4867 10.3035 13.5794 10.6088 13.5794 10.9211C13.5793 11.3399 13.413 11.7416 13.1168 12.0377C12.8207 12.3339 12.419 12.5002 12.0002 12.5002ZM12.0002 5.13086C10.4651 5.1326 8.99331 5.7432 7.9078 6.8287C6.8223 7.91421 6.2117 9.38596 6.20996 10.9211C6.20996 12.9872 7.16469 15.1769 8.97348 17.2542C9.78624 18.1928 10.701 19.038 11.7008 19.7742C11.7893 19.8362 11.8948 19.8695 12.0028 19.8695C12.1109 19.8695 12.2163 19.8362 12.3048 19.7742C13.3028 19.0377 14.2158 18.1925 15.0269 17.2542C16.8331 15.1769 17.7904 12.9872 17.7904 10.9211C17.7887 9.38596 17.1781 7.91421 16.0926 6.8287C15.0071 5.7432 13.5353 5.1326 12.0002 5.13086ZM12.0002 18.6853C10.9126 17.8299 7.26273 14.688 7.26273 10.9211C7.26273 9.66464 7.76186 8.45965 8.6503 7.5712C9.53875 6.68275 10.7437 6.18363 12.0002 6.18363C13.2566 6.18363 14.4616 6.68275 15.3501 7.5712C16.2385 8.45965 16.7377 9.66464 16.7377 10.9211C16.7377 14.6867 13.0878 17.8299 12.0002 18.6853Z" fill="#999999"/>
</svg>