<svg xmlns="http://www.w3.org/2000/svg" width="20" height="20" viewBox="0 0 20 20" fill="none">
  <path d="M10.625 5.83301C10.625 5.66725 10.5592 5.50828 10.4419 5.39107C10.3247 5.27386 10.1658 5.20801 10 5.20801C9.83424 5.20801 9.67527 5.27386 9.55806 5.39107C9.44085 5.50828 9.375 5.66725 9.375 5.83301V9.99967C9.37496 10.1056 9.40185 10.2099 9.45317 10.3026C9.50448 10.3953 9.57852 10.4734 9.66833 10.5297L12.1683 12.0922C12.3089 12.1801 12.4786 12.2087 12.6402 12.1715C12.7203 12.153 12.7959 12.1191 12.8627 12.0714C12.9296 12.0238 12.9864 11.9634 13.03 11.8938C13.0736 11.8242 13.103 11.7467 13.1166 11.6658C13.1302 11.5848 13.1277 11.5019 13.1093 11.4219C13.0909 11.3419 13.0569 11.2663 13.0092 11.1994C12.9616 11.1326 12.9013 11.0757 12.8317 11.0322L10.625 9.65301V5.83301Z" fill="#999999"/>
  <path fill-rule="evenodd" clip-rule="evenodd" d="M9.99992 2.70801C8.06605 2.70801 6.21138 3.47623 4.84393 4.84369C3.47648 6.21114 2.70825 8.0658 2.70825 9.99967C2.70825 11.9335 3.47648 13.7882 4.84393 15.1557C6.21138 16.5231 8.06605 17.2913 9.99992 17.2913C11.9338 17.2913 13.7885 16.5231 15.1559 15.1557C16.5234 13.7882 17.2916 11.9335 17.2916 9.99967C17.2916 8.0658 16.5234 6.21114 15.1559 4.84369C13.7885 3.47623 11.9338 2.70801 9.99992 2.70801ZM3.95825 9.99967C3.95825 9.20627 4.11452 8.42064 4.41815 7.68763C4.72177 6.95462 5.16679 6.28859 5.72782 5.72757C6.28884 5.16655 6.95486 4.72152 7.68787 4.4179C8.42088 4.11428 9.20652 3.95801 9.99992 3.95801C10.7933 3.95801 11.579 4.11428 12.312 4.4179C13.045 4.72152 13.711 5.16655 14.272 5.72757C14.833 6.28859 15.2781 6.95462 15.5817 7.68763C15.8853 8.42064 16.0416 9.20627 16.0416 9.99967C16.0416 11.602 15.4051 13.1387 14.272 14.2718C13.139 15.4048 11.6023 16.0413 9.99992 16.0413C8.39757 16.0413 6.86085 15.4048 5.72782 14.2718C4.59478 13.1387 3.95825 11.602 3.95825 9.99967Z" fill="#999999"/>
</svg>