<svg width="151" height="84" viewBox="0 0 151 84" fill="none" xmlns="http://www.w3.org/2000/svg">
<g filter="url(#filter0_d_3072_16706)">
<path fill-rule="evenodd" clip-rule="evenodd" d="M31 0C14.4315 0 1 13.6334 1 30.2019C1 46.7705 14.4315 60.4038 31 60.4038H88.4603C89.1299 60.4038 89.7608 60.7363 90.1051 61.3105C92.5794 65.4372 93.3293 69.65 93.3653 73.1526C93.387 75.2637 96.5672 76.9668 97.9557 75.3764C101.22 71.6377 105.052 66.6368 107.225 61.6805C107.558 60.919 108.297 60.4038 109.128 60.4038H114C130.569 60.4038 144 46.7705 144 30.2019C144 13.6334 130.569 0 114 0H31Z" fill="white"/>
<path d="M29.29 17.2206C29.29 19.1376 30.6865 21.08 32.3496 21.8036L31.791 22.5907C30.4707 21.9877 29.3281 20.6864 28.8076 19.1249C28.2744 20.7816 27.1382 22.2225 25.8496 22.87L25.2529 22.0829C26.8652 21.3085 28.2744 19.1757 28.2871 17.2206V15.7479H25.6211V14.9227H31.9814V15.7479H29.29V17.2206ZM34.5586 13.7548V25.0409H33.5557V13.7548H34.5586ZM45.4639 14.3641V15.202C45.4639 16.078 45.4639 17.1063 45.1719 18.5155H46.8223V19.3407H36.4883V18.5155H44.1689C44.4736 17.1 44.4736 16.078 44.4736 15.202V15.1893H37.7959V14.3641H45.4639ZM45.5146 20.9022V24.8885H37.7578V20.9022H45.5146ZM38.748 21.6893V24.076H44.5244V21.6893H38.748ZM59.7207 13.7548V18.1981H61.6123V19.0614H59.7207V25.0409H58.7305V13.7548H59.7207ZM52.4463 14.7196V17.703H55.7471V14.7196H56.7373V22.3368H51.4561V14.7196H52.4463ZM52.4463 21.4989H55.7471V18.5028H52.4463V21.4989ZM72.5557 22.8065V23.6444H62.2217V22.8065H66.8682V20.6737H63.5166V17.1952H70.2705V15.4178H63.4912V14.5927H71.248V18.0077H64.5068V19.8485H71.5146V20.6737H67.8457V22.8065H72.5557ZM85.4541 13.7548V18.3505H87.2822V19.1884H85.4541V25.0409H84.4639V13.7548H85.4541ZM82.5342 14.9735C82.5342 18.1727 81.0361 21.08 77.3545 22.8954L76.7959 22.1083C79.7158 20.6547 81.3027 18.4838 81.5312 15.8114H77.3164V14.9735H82.5342ZM97.2734 13.7548V19.8104H96.2832V13.7548H97.2734ZM90.9512 20.3817V21.7528H96.2832V20.3817H97.2734V24.8885H89.9609V20.3817H90.9512ZM90.9512 24.076H96.2832V22.5526H90.9512V24.076ZM91.1797 14.3134C92.8936 14.3007 94.1377 15.3544 94.1377 16.9032C94.1377 18.4393 92.8936 19.493 91.1797 19.493C89.4658 19.493 88.2217 18.4393 88.2217 16.9032C88.2217 15.3544 89.4658 14.3007 91.1797 14.3134ZM91.1797 15.1512C90.0244 15.1385 89.1865 15.8749 89.1992 16.9032C89.1865 17.9315 90.0244 18.6678 91.1797 18.6678C92.3223 18.6678 93.1602 17.9315 93.1602 16.9032C93.1602 15.8749 92.3223 15.1385 91.1797 15.1512ZM107.925 13.7548V18.4139H109.816V19.2391H107.925V25.0409H106.935V13.7548H107.925ZM105.843 15.5702V16.3954H99.127V15.5702H102.034V13.8944H103.024V15.5702H105.843ZM102.542 17.3348C104.142 17.3348 105.297 18.4012 105.31 19.9247C105.297 21.4481 104.142 22.5145 102.542 22.5145C100.93 22.5145 99.7617 21.4481 99.7744 19.9247C99.7617 18.4012 100.93 17.3348 102.542 17.3348ZM102.542 18.1727C101.488 18.1727 100.714 18.9091 100.727 19.9247C100.714 20.953 101.488 21.6766 102.542 21.6639C103.583 21.6766 104.345 20.953 104.357 19.9247C104.345 18.9091 103.583 18.1727 102.542 18.1727ZM119.478 14.8973V16.0272C119.465 17.411 119.465 18.9598 119.059 21.2323L118.043 21.118C118.475 18.9598 118.475 17.3729 118.475 16.0272V15.7225H111.518V14.8973H119.478ZM120.709 22.6161V23.4413H110.426V22.6161H114.463V18.579H115.44V22.6161H120.709Z" fill="#5C289E"/>
<path d="M34.0586 33.691V45.1802H32.6367V33.691H34.0586ZM27.876 34.5289C29.6025 34.5289 30.8594 36.1031 30.8721 38.5787C30.8594 41.0797 29.6025 42.6412 27.876 42.6412C26.1367 42.6412 24.8799 41.0797 24.8799 38.5787C24.8799 36.1031 26.1367 34.5289 27.876 34.5289ZM27.876 35.7984C26.8984 35.7984 26.2383 36.8267 26.2383 38.5787C26.2383 40.3433 26.8984 41.3716 27.876 41.3716C28.8408 41.3716 29.501 40.3433 29.501 38.5787C29.501 36.8267 28.8408 35.7984 27.876 35.7984ZM45.5605 33.691V42.3746H44.2148V33.691H45.5605ZM43.2754 33.8941V42.0191H41.9424V38.0582H40.7236V40.3179H36.1914V34.5923H37.5244V36.4078H39.416V34.5923H40.7236V36.9156H41.9424V33.8941H43.2754ZM37.5244 39.1754H39.416V37.4869H37.5244V39.1754ZM45.8779 43.7964V44.939H37.8799V41.2193H39.2891V43.7964H45.8779ZM56.3135 39.7086V40.8257H48.2646V34.5923H56.2119V35.7349H49.6992V37.1187H55.9453V38.2232H49.6992V39.7086H56.3135ZM57.4688 42.6158V43.7711H46.9824V42.6158H57.4688ZM70.6465 37.3726V38.5152H62.623V34.2369H64.0322V37.3726H70.6465ZM71.7891 39.9625V41.1177H67.2061V45.1675H65.7842V41.1177H61.3027V39.9625H71.7891ZM82.1484 33.691V45.1802H80.7393V40.4703H78.6445V39.315H80.7393V37.3472H78.6826V36.192H80.7393V33.691H82.1484ZM78.0352 34.6812V38.9722H74.3535V41.4097C75.8706 41.397 77.1909 41.3336 78.7334 41.105L78.8477 42.2603C77.083 42.5396 75.623 42.5777 73.8457 42.5777H72.957V37.8677H76.6514V35.8111H72.9189V34.6812H78.0352ZM94.2598 42.6285V43.7838H83.7734V42.6285H88.293V40.3941H84.9287V34.4527H86.3379V36.3316H91.6572V34.4527H93.0664V40.3941H89.6895V42.6285H94.2598ZM86.3379 39.2515H91.6572V37.4615H86.3379V39.2515ZM98.5889 36.6998C98.5889 38.5533 99.2363 40.483 100.785 41.4605L100.011 42.5396C98.9761 41.9175 98.3032 40.8448 97.9287 39.5816C97.5098 40.9717 96.7734 42.1461 95.6943 42.8062L94.8184 41.7525C96.4814 40.7369 97.2305 38.7183 97.2305 36.7632V34.7066H98.5889V36.6998ZM104.911 33.691V45.1675H103.553V33.691H104.911ZM102.524 33.8941V44.6089H101.191V38.8072H99.5537V37.6392H101.191V33.8941H102.524ZM116.73 42.6158V43.7711H106.244V42.6158H108.669V39.7086C107.755 39.188 107.203 38.3692 107.209 37.3472C107.196 35.5191 108.999 34.313 111.462 34.313C113.938 34.313 115.74 35.5191 115.74 37.3472C115.74 38.3502 115.207 39.1563 114.318 39.6832V42.6158H116.73ZM111.462 35.4302C109.748 35.4302 108.58 36.1539 108.593 37.3472C108.58 38.5279 109.748 39.2642 111.462 39.2642C113.176 39.2642 114.356 38.5279 114.356 37.3472C114.356 36.1539 113.176 35.4302 111.462 35.4302ZM110.065 42.6158H112.884V40.2164C112.446 40.3179 111.97 40.3687 111.462 40.3687C110.967 40.3687 110.497 40.3179 110.065 40.2291V42.6158ZM119.841 34.8463L119.701 41.3336H118.267L118.114 34.8463H119.841ZM118.99 44.1392C118.444 44.1392 118 43.6949 118 43.149C118 42.6158 118.444 42.1714 118.99 42.1714C119.511 42.1714 119.968 42.6158 119.968 43.149C119.968 43.6949 119.511 44.1392 118.99 44.1392Z" fill="#5C289E"/>
</g>
<defs>
<filter id="filter0_d_3072_16706" x="0" y="0" width="151" height="84.0013" filterUnits="userSpaceOnUse" color-interpolation-filters="sRGB">
<feFlood flood-opacity="0" result="BackgroundImageFix"/>
<feColorMatrix in="SourceAlpha" type="matrix" values="0 0 0 0 0 0 0 0 0 0 0 0 0 0 0 0 0 0 127 0" result="hardAlpha"/>
<feOffset dx="3" dy="4"/>
<feGaussianBlur stdDeviation="2"/>
<feComposite in2="hardAlpha" operator="out"/>
<feColorMatrix type="matrix" values="0 0 0 0 0 0 0 0 0 0 0 0 0 0 0 0 0 0 0.25 0"/>
<feBlend mode="normal" in2="BackgroundImageFix" result="effect1_dropShadow_3072_16706"/>
<feBlend mode="normal" in="SourceGraphic" in2="effect1_dropShadow_3072_16706" result="shape"/>
</filter>
</defs>
</svg>
