<svg width="143" height="76" viewBox="0 0 143 76" fill="none" xmlns="http://www.w3.org/2000/svg">
<path fill-rule="evenodd" clip-rule="evenodd" d="M30 0C13.4315 0 0 13.6334 0 30.2019C0 46.7705 13.4315 60.4038 30 60.4038H87.4603C88.1299 60.4038 88.7608 60.7363 89.1051 61.3105C91.5794 65.4372 92.3293 69.65 92.3653 73.1526C92.387 75.2637 95.5672 76.9668 96.9557 75.3764C100.22 71.6377 104.052 66.6368 106.225 61.6805C106.558 60.919 107.297 60.4038 108.128 60.4038H113C129.569 60.4038 143 46.7705 143 30.2019C143 13.6334 129.569 0 113 0H30Z" fill="white"/>
<path d="M23.752 25.1493C21.7832 25.1493 20.375 24.0966 20.3066 22.5243H21.5508C21.6191 23.4677 22.5625 24.0555 23.7383 24.0555C25.0371 24.0555 25.9941 23.3446 25.9941 22.3192C25.9941 21.2391 25.1328 20.4735 23.5879 20.4735H22.7812V19.3934H23.5879C24.791 19.3934 25.625 18.7235 25.625 17.6981C25.625 16.7137 24.9004 16.0438 23.7793 16.0438C22.7266 16.0438 21.7559 16.6317 21.7012 17.6024H20.5117C20.5801 16.0302 22.0293 14.9774 23.793 14.9774C25.6797 14.9774 26.8281 16.2079 26.8145 17.6298C26.8281 18.7509 26.1719 19.5848 25.1328 19.8719V19.9403C26.418 20.1454 27.2109 21.0614 27.1973 22.3192C27.2109 23.9462 25.7207 25.1493 23.752 25.1493ZM32.2148 25.1493C30.0137 25.1493 28.7559 23.3036 28.7559 20.0634C28.7559 16.8505 30.041 14.9774 32.2148 14.9774C34.3887 14.9774 35.6738 16.8505 35.6738 20.0634C35.6738 23.3036 34.4023 25.1493 32.2148 25.1493ZM32.2148 24.0555C33.6367 24.0555 34.4707 22.62 34.4707 20.0634C34.4707 17.5067 33.6367 16.0438 32.2148 16.0438C30.793 16.0438 29.9453 17.5067 29.9453 20.0634C29.9453 22.62 30.7793 24.0555 32.2148 24.0555ZM48.0059 23.6864V24.5887H36.877V23.6864H41.8945V20.8973H42.9473V23.6864H48.0059ZM46.9395 15.9071V16.7958H42.9746C42.9814 18.703 45.0049 20.1044 47.3359 20.4872L46.9258 21.3348C44.9775 20.9862 43.1934 20.0087 42.4277 18.4911C41.6553 20.0087 39.8711 20.9862 37.916 21.3348L37.4922 20.4872C39.8369 20.1044 41.874 18.703 41.8809 16.7958H37.916V15.9071H41.8945V14.2255H42.9473V15.9071H46.9395ZM55.1152 15.0731V20.6649H49.4961V15.0731H55.1152ZM50.5488 15.9481V19.8036H54.0762V15.9481H50.5488ZM58.4785 13.9657V17.6708H60.3105V18.5731H58.4785V22.8798H57.4121V13.9657H58.4785ZM59.0391 24.9579V25.8602H50.877V22.0321H51.9297V24.9579H59.0391ZM71.4941 13.9657V26.12H70.4551V13.9657H71.4941ZM69.0469 14.2255V25.5048H68.0215V19.5985H66.4629C66.3467 21.9637 65.3418 23.4403 63.8379 23.4403C62.252 23.4403 61.2266 21.7997 61.2266 19.2157C61.2266 16.6317 62.252 14.9911 63.8379 14.9911C65.3145 14.9911 66.3125 16.4198 66.4492 18.7098H68.0215V14.2255H69.0469ZM63.8379 16.0028C62.8535 16.0028 62.2246 17.2333 62.2383 19.2157C62.2246 21.1844 62.8535 22.4286 63.8379 22.4149C64.8223 22.4286 65.4512 21.1844 65.4512 19.2157C65.4512 17.2333 64.8223 16.0028 63.8379 16.0028ZM86.0957 13.9657V18.9149H88.0645V19.8173H86.0957V26.12H85.0293V13.9657H86.0957ZM82.9512 15.2782C82.9512 18.7235 81.3379 21.8544 77.373 23.8094L76.7715 22.9618C79.916 21.3964 81.625 19.0585 81.8711 16.1805H77.332V15.2782H82.9512ZM98.8242 13.9657V20.4872H97.7578V13.9657H98.8242ZM92.0156 21.1024V22.579H97.7578V21.1024H98.8242V25.9559H90.9492V21.1024H92.0156ZM92.0156 25.0809H97.7578V23.4403H92.0156V25.0809ZM92.2617 14.5673C94.1074 14.5536 95.4473 15.6884 95.4473 17.3563C95.4473 19.0106 94.1074 20.1454 92.2617 20.1454C90.416 20.1454 89.0762 19.0106 89.0762 17.3563C89.0762 15.6884 90.416 14.5536 92.2617 14.5673ZM92.2617 15.4696C91.0176 15.4559 90.1152 16.2489 90.1289 17.3563C90.1152 18.4637 91.0176 19.2567 92.2617 19.2567C93.4922 19.2567 94.3945 18.4637 94.3945 17.3563C94.3945 16.2489 93.4922 15.4559 92.2617 15.4696ZM110.295 13.9657V18.9833H112.332V19.8719H110.295V26.12H109.229V13.9657H110.295ZM108.053 15.9208V16.8094H100.82V15.9208H103.951V14.1161H105.018V15.9208H108.053ZM104.498 17.8212C106.221 17.8212 107.465 18.9696 107.479 20.6102C107.465 22.2509 106.221 23.3993 104.498 23.3993C102.762 23.3993 101.504 22.2509 101.518 20.6102C101.504 18.9696 102.762 17.8212 104.498 17.8212ZM104.498 18.7235C103.363 18.7235 102.529 19.5165 102.543 20.6102C102.529 21.7177 103.363 22.4969 104.498 22.4833C105.619 22.4969 106.439 21.7177 106.453 20.6102C106.439 19.5165 105.619 18.7235 104.498 18.7235ZM122.736 15.1962V16.413C122.723 17.9032 122.723 19.5712 122.285 22.0184L121.191 21.8954C121.656 19.5712 121.656 17.8622 121.656 16.413V16.0848H114.164V15.1962H122.736ZM124.062 23.5087V24.3973H112.988V23.5087H117.336V19.161H118.389V23.5087H124.062Z" fill="#5C289E"/>
<path d="M30.1016 33.895V46.2681H28.5703V33.895H30.1016ZM23.4434 34.7974C25.3027 34.7974 26.6562 36.4927 26.6699 39.1587C26.6562 41.8521 25.3027 43.5337 23.4434 43.5337C21.5703 43.5337 20.2168 41.8521 20.2168 39.1587C20.2168 36.4927 21.5703 34.7974 23.4434 34.7974ZM23.4434 36.1646C22.3906 36.1646 21.6797 37.272 21.6797 39.1587C21.6797 41.0591 22.3906 42.1665 23.4434 42.1665C24.4824 42.1665 25.1934 41.0591 25.1934 39.1587C25.1934 37.272 24.4824 36.1646 23.4434 36.1646ZM42.4883 33.895V43.2466H41.0391V33.895H42.4883ZM40.0273 34.1138V42.8638H38.5918V38.5981H37.2793V41.0317H32.3984V34.8657H33.834V36.8208H35.8711V34.8657H37.2793V37.3677H38.5918V34.1138H40.0273ZM33.834 39.8013H35.8711V37.9829H33.834V39.8013ZM42.8301 44.7778V46.0083H34.2168V42.0024H35.7344V44.7778H42.8301ZM54.0684 40.3755V41.5786H45.4004V34.8657H53.959V36.0962H46.9453V37.5864H53.6719V38.7759H46.9453V40.3755H54.0684ZM55.3125 43.5063V44.7505H44.0195V43.5063H55.3125ZM69.5039 37.8599V39.0903H60.8633V34.4829H62.3809V37.8599H69.5039ZM70.7344 40.6489V41.8931H65.7988V46.2544H64.2676V41.8931H59.4414V40.6489H70.7344ZM81.8906 33.895V46.2681H80.373V41.1958H78.1172V39.9517H80.373V37.8325H78.1582V36.5884H80.373V33.895H81.8906ZM77.4609 34.9614V39.5825H73.4961V42.2075C75.1299 42.1938 76.5518 42.1255 78.2129 41.8794L78.3359 43.1235C76.4355 43.4243 74.8633 43.4653 72.9492 43.4653H71.9922V38.3931H75.9707V36.1782H71.9512V34.9614H77.4609ZM94.9336 43.52V44.7642H83.6406V43.52H88.5078V41.1138H84.8848V34.7153H86.4023V36.7388H92.1309V34.7153H93.6484V41.1138H90.0117V43.52H94.9336ZM86.4023 39.8833H92.1309V37.9556H86.4023V39.8833ZM99.5957 37.1353C99.5957 39.1313 100.293 41.2095 101.961 42.2622L101.127 43.4243C100.013 42.7544 99.2881 41.5991 98.8848 40.2388C98.4336 41.7358 97.6406 43.0005 96.4785 43.7114L95.5352 42.5767C97.3262 41.4829 98.1328 39.3091 98.1328 37.2036V34.9888H99.5957V37.1353ZM106.404 33.895V46.2544H104.941V33.895H106.404ZM103.834 34.1138V45.6528H102.398V39.4048H100.635V38.147H102.398V34.1138H103.834ZM119.133 43.5063V44.7505H107.84V43.5063H110.451V40.3755C109.467 39.8149 108.872 38.9331 108.879 37.8325C108.865 35.8638 110.807 34.5649 113.459 34.5649C116.125 34.5649 118.066 35.8638 118.066 37.8325C118.066 38.9126 117.492 39.7808 116.535 40.3481V43.5063H119.133ZM113.459 35.7681C111.613 35.7681 110.355 36.5474 110.369 37.8325C110.355 39.104 111.613 39.897 113.459 39.897C115.305 39.897 116.576 39.104 116.576 37.8325C116.576 36.5474 115.305 35.7681 113.459 35.7681ZM111.955 43.5063H114.99V40.9224C114.519 41.0317 114.006 41.0864 113.459 41.0864C112.926 41.0864 112.42 41.0317 111.955 40.936V43.5063ZM122.482 35.1392L122.332 42.1255H120.787L120.623 35.1392H122.482ZM121.566 45.147C120.979 45.147 120.5 44.6685 120.5 44.0806C120.5 43.5063 120.979 43.0278 121.566 43.0278C122.127 43.0278 122.619 43.5063 122.619 44.0806C122.619 44.6685 122.127 45.147 121.566 45.147Z" fill="#5C289E"/>
</svg>
